<!-- Generated by IcoMoon.io -->
<svg version="1.1" xmlns="http://www.w3.org/2000/svg" width="31" height="32" viewBox="0 0 31 32">
<title>clock1</title>
<path fill="#2e2f42" d="M29.153 13.601c-0.002-7.513-6.094-13.603-13.607-13.601s-13.603 6.094-13.601 13.607c0.001 5.918 3.828 11.157 9.466 12.957 0.054 0.017 0.11 0.026 0.166 0.025 0.107-0 0.212-0.029 0.304-0.083 0.12-0.071 0.21-0.184 0.252-0.317l3.436-10.889c0.939-0.005 1.697-0.77 1.692-1.709s-0.77-1.697-1.709-1.692c-0.253 0.001-0.502 0.059-0.729 0.17l-4.539-4.539c-0.225-0.217-0.584-0.211-0.801 0.014-0.212 0.22-0.212 0.568 0 0.788l4.536 4.541c-0.348 0.71-0.149 1.568 0.477 2.053l-3.273 10.376c-6.469-2.383-9.782-9.559-7.399-16.028s9.559-9.782 16.028-7.399c6.469 2.383 9.782 9.559 7.399 16.028-1.164 3.161-3.556 5.717-6.633 7.087l-0.354-1.666c-0.065-0.306-0.366-0.502-0.672-0.437-0.097 0.021-0.186 0.066-0.26 0.132l-3.411 3.045c-0.234 0.208-0.255 0.566-0.046 0.8 0.068 0.076 0.155 0.132 0.252 0.163l4.354 1.39c0.298 0.096 0.617-0.068 0.713-0.366 0.030-0.094 0.035-0.194 0.015-0.291l-0.348-1.635c5.035-2.123 8.304-7.060 8.292-12.524zM15.549 13.034c0.313 0 0.567 0.254 0.567 0.567s-0.254 0.567-0.567 0.567c-0.313 0-0.567-0.254-0.567-0.567s0.254-0.567 0.567-0.567zM17.416 26.247l1.941-1.732 0.536 2.525-2.477-0.793z"></path>
<path fill="#4d5ae5" d="M14.982 2.831v1.134c0 0.313 0.254 0.567 0.567 0.567s0.567-0.254 0.567-0.567v-1.134c0-0.313-0.254-0.567-0.567-0.567s-0.567 0.254-0.567 0.567z"></path>
<path fill="#4d5ae5" d="M4.779 13.034c-0.313 0-0.567 0.254-0.567 0.567s0.254 0.567 0.567 0.567h1.134c0.313 0 0.567-0.254 0.567-0.567s-0.254-0.567-0.567-0.567h-1.134z"></path>
<path fill="#4d5ae5" d="M26.318 14.168c0.313 0 0.567-0.254 0.567-0.567s-0.254-0.567-0.567-0.567h-1.134c-0.313 0-0.567 0.254-0.567 0.567s0.254 0.567 0.567 0.567h1.134z"></path>
</svg>
